<?xml version="1.0" encoding="UTF-8"?>
<svg version="1.1" xmlns="http://www.w3.org/2000/svg" width="512" height="512">
<path d="M0 0 C0.96988861 0.00182281 1.93977722 0.00364563 2.9390564 0.00552368 C17.29056055 0.05091691 31.25442918 0.5562653 45.375 3.3125 C46.72053955 3.55395752 46.72053955 3.55395752 48.09326172 3.80029297 C107.90338904 14.62287989 165.41745829 48.68064457 202.375 97.3125 C202.79168945 97.85277832 203.20837891 98.39305664 203.63769531 98.94970703 C211.3209873 108.9447116 218.06342968 119.40459036 224.375 130.3125 C224.76929199 130.98974121 225.16358398 131.66698242 225.56982422 132.36474609 C238.75211173 155.2833756 247.35760918 180.85822563 252.6875 206.6875 C252.83493652 207.39817627 252.98237305 208.10885254 253.13427734 208.84106445 C256.11963787 224.48358366 256.7498098 240.11919606 256.6875 256 C256.68476578 257.45108658 256.68476578 257.45108658 256.68197632 258.93148804 C256.63654826 273.26440977 256.12766072 287.21023917 253.375 301.3125 C253.21402832 302.20952637 253.05305664 303.10655273 252.88720703 304.03076172 C242.06462011 363.84088904 208.00685543 421.35495829 159.375 458.3125 C158.83472168 458.72918945 158.29444336 459.14587891 157.73779297 459.57519531 C147.7427884 467.2584873 137.28290964 474.00092968 126.375 480.3125 C125.69775879 480.70679199 125.02051758 481.10108398 124.32275391 481.50732422 C98.40376191 496.41535371 68.91148362 505.97401819 39.375 510.3125 C38.17037109 510.48982666 36.96574219 510.66715332 35.72460938 510.84985352 C24.06732646 512.448825 12.50313902 512.6709053 0.75 512.625 C-0.70483292 512.62226578 -0.70483292 512.62226578 -2.1890564 512.61947632 C-16.54056055 512.57408309 -30.50442918 512.0687347 -44.625 509.3125 C-45.52202637 509.15152832 -46.41905273 508.99055664 -47.34326172 508.82470703 C-107.15338904 498.00212011 -164.66745829 463.94435543 -201.625 415.3125 C-202.04168945 414.77222168 -202.45837891 414.23194336 -202.88769531 413.67529297 C-230.625 377.59251915 -230.625 377.59251915 -230.625 367.3125 C-231.615 367.6425 -232.605 367.9725 -233.625 368.3125 C-239.16546352 368.80018871 -244.02394848 369.05584535 -249.125 366.6875 C-253.9393755 362.11384327 -255.87656236 359.0037538 -256.125 352.3125 C-255.93392292 347.1534188 -255.17125455 344.2320445 -251.625 340.3125 C-251.07328125 339.87164062 -250.5215625 339.43078125 -249.953125 338.9765625 C-248.16123685 337.48880215 -246.88191469 336.27898457 -245.625 334.3125 C-245.65460149 332.11601157 -245.65460149 332.11601157 -246.30859375 329.77734375 C-246.51548828 328.88934082 -246.72238281 328.00133789 -246.93554688 327.08642578 C-247.16306641 326.17103027 -247.39058594 325.25563477 -247.625 324.3125 C-248.02221856 322.58004104 -248.41674962 320.8469637 -248.80859375 319.11328125 C-249.01266846 318.22809814 -249.21674316 317.34291504 -249.42700195 316.4309082 C-250.56506054 311.40604943 -251.61112454 306.36374293 -252.625 301.3125 C-252.79741211 300.4565625 -252.96982422 299.600625 -253.14746094 298.71875 C-258.41785905 271.01902772 -258.01923101 238.94789002 -252.625 211.3125 C-252.38354248 209.96696045 -252.38354248 209.96696045 -252.13720703 208.59423828 C-241.31462011 148.78411096 -207.25685543 91.27004171 -158.625 54.3125 C-158.08472168 53.89581055 -157.54444336 53.47912109 -156.98779297 53.04980469 C-146.9927884 45.3665127 -136.53290964 38.62407032 -125.625 32.3125 C-124.94775879 31.91820801 -124.27051758 31.52391602 -123.57275391 31.11767578 C-97.65376191 16.20964629 -68.16148362 6.65098181 -38.625 2.3125 C-37.42037109 2.13517334 -36.21574219 1.95784668 -34.97460938 1.77514648 C-23.31732646 0.176175 -11.75313902 -0.0459053 0 0 Z " fill="#FEC928" transform="translate(255.625,-0.3125)"/>
<path d="M0 0 C1.6318791 1.36682867 3.25694999 2.74182822 4.875 4.125 C6.07382812 5.08792969 6.07382812 5.08792969 7.296875 6.0703125 C23.95057715 20.01911398 35.19717353 40.3731009 40.875 61.125 C41.19339844 62.24390625 41.51179688 63.3628125 41.83984375 64.515625 C48.74064304 92.8820442 42.34640084 121.6540747 28.375 146.6875 C24.9773574 152.21443445 21.08564257 157.19934265 16.875 162.125 C16.23304688 162.92421875 15.59109375 163.7234375 14.9296875 164.546875 C-2.03768115 184.80449384 -29.86408826 198.76585107 -56.125 201.125 C-83.35043743 202.85799748 -112.23305541 197.67114914 -134.125 180.125 C-137.21719949 181.5017413 -139.32373142 183.07744375 -141.70559692 185.47181702 C-142.39816589 186.16308182 -143.09073486 186.85434662 -143.80429077 187.56655884 C-144.55352814 188.3245578 -145.3027655 189.08255676 -146.07470703 189.86352539 C-147.27045349 191.06124321 -147.27045349 191.06124321 -148.49035645 192.28315735 C-151.12579847 194.92509381 -153.75419925 197.5739269 -156.3828125 200.22265625 C-158.21025633 202.05636907 -160.03821532 203.88956862 -161.8666687 205.72227478 C-166.18842306 210.0559796 -170.50605177 214.39375168 -174.82136524 218.73386902 C-183.01217763 226.97167488 -191.21011337 235.2023709 -199.41207504 243.42907524 C-202.11003594 246.1372931 -204.80457711 248.84888008 -207.49880981 251.56080627 C-209.14378624 253.21260775 -210.78887102 254.86430132 -212.43408203 256.51586914 C-213.18736786 257.27589233 -213.94065369 258.03591553 -214.71676636 258.81896973 C-215.40369568 259.5074147 -216.090625 260.19585968 -216.79837036 260.90516663 C-217.3960277 261.50634339 -217.99368504 262.10752016 -218.6094532 262.72691441 C-222.24474051 266.08045177 -226.43448894 265.45300789 -231.140625 265.40234375 C-236.49549732 264.90470509 -238.93840277 262.37404972 -242.5 258.625 C-244.89899987 253.45792335 -244.8745208 248.72708842 -244.125 243.125 C-241.01292463 236.52740022 -234.80426358 231.53716044 -229.3260498 226.83067322 C-225.45088333 223.45188205 -221.78148866 219.91715376 -218.15820312 216.27172852 C-217.19084732 215.30459175 -217.19084732 215.30459175 -216.20394897 214.31791687 C-214.10233287 212.21561182 -212.0042673 210.10980223 -209.90625 208.00390625 C-208.438167 206.53395544 -206.96986103 205.06422728 -205.50134277 203.5947113 C-201.65886864 199.74844055 -197.8194086 195.89917494 -193.98059082 192.04925537 C-190.05399789 188.1123866 -186.12453094 184.17838869 -182.1953125 180.24414062 C-174.50240957 172.54055078 -166.81269113 164.83379065 -159.125 157.125 C-160.68133362 153.09324145 -162.57805709 149.58004875 -164.8125 145.875 C-179.70625011 120.21706844 -184.82616842 90.44377819 -177.3828125 61.4140625 C-175.49432195 54.72503496 -173.0566216 48.43242829 -170.125 42.125 C-169.8470459 41.51736816 -169.5690918 40.90973633 -169.28271484 40.28369141 C-157.07947444 14.06498462 -134.06974323 -6.05185133 -107.22265625 -16.453125 C-103.54904305 -17.7329147 -99.8768616 -18.84847134 -96.125 -19.875 C-95.00609375 -20.19339844 -93.8871875 -20.51179688 -92.734375 -20.83984375 C-60.85024916 -28.59640799 -25.67452837 -20.07930657 0 0 Z " fill="#03A9F3" transform="translate(244.125,102.875)"/>
<path d="M0 0 C3.22093444 3.19634208 6.28629768 6.43930064 9.25 9.875 C13.41994154 14.55654781 17.90658383 18.36356576 23 22 C18.59606355 27.26834612 13.95943943 32.18373587 9.09863281 37.03076172 C8.33043716 37.80070969 7.56224152 38.57065765 6.77076721 39.36393738 C4.25071622 41.88836223 1.727058 44.40914435 -0.796875 46.9296875 C-2.55485409 48.68834056 -4.31268473 50.44714202 -6.07037354 52.20608521 C-9.7436975 55.88087979 -13.41881521 59.55386844 -17.09521484 63.22558594 C-20.87452651 67.00031949 -24.65165943 70.77720607 -28.42626953 74.55664062 C-32.98903127 79.12518389 -37.55421061 83.69129518 -42.12149811 88.25531387 C-43.86223073 89.9953781 -45.60221721 91.73618907 -47.34145355 93.47774887 C-49.76396715 95.90279 -52.18964223 98.32462294 -54.61621094 100.74560547 C-55.33830246 101.46972122 -56.06039398 102.19383698 -56.80436707 102.93989563 C-57.79256187 103.9238607 -57.79256187 103.9238607 -58.80072021 104.92770386 C-59.66012522 105.78654332 -59.66012522 105.78654332 -60.53689194 106.66273308 C-64.14706192 109.96239427 -68.36606627 109.32739881 -73.015625 109.27734375 C-78.37049732 108.77970509 -80.81340277 106.24904972 -84.375 102.5 C-86.77399987 97.33292335 -86.7495208 92.60208842 -86 87 C-82.88900142 80.404683 -76.68367682 75.41575424 -71.20678711 70.71141052 C-67.29701292 67.30241216 -63.5972392 63.73275373 -59.94140625 60.05493164 C-59.28674881 59.40042023 -58.63209137 58.74590881 -57.95759583 58.07156372 C-55.82351433 55.93679311 -53.69298335 53.79851725 -51.5625 51.66015625 C-50.07199672 50.16778522 -48.58127052 48.6756368 -47.09033203 47.18370056 C-43.18867446 43.27824587 -39.2900308 39.36979621 -35.39202881 35.46069336 C-31.40511224 31.46350202 -27.41532264 27.46918061 -23.42578125 23.47460938 C-15.61438923 15.65252958 -7.80618147 7.82727952 0 0 Z " fill="#607D8A" transform="translate(86,259)"/>
<path d="M0 0 C0.87052505 -0.00571014 1.74105011 -0.01142029 2.63795471 -0.01730347 C3.59021942 -0.01842133 4.54248413 -0.01953918 5.52360535 -0.02069092 C7.03136284 -0.02813828 7.03136284 -0.02813828 8.56958008 -0.03573608 C11.9008604 -0.05036255 15.23209309 -0.05716058 18.56340027 -0.06268311 C20.87644451 -0.06843421 23.18948874 -0.07419195 25.50253296 -0.07995605 C30.355588 -0.09046746 35.20862646 -0.0963092 40.06169128 -0.09979248 C46.27931298 -0.10527709 52.49671567 -0.12930403 58.71426868 -0.15776443 C63.49351643 -0.17639106 68.27271144 -0.18159644 73.05199242 -0.18312836 C75.34410995 -0.18615541 77.63622655 -0.19418567 79.92830849 -0.20731354 C83.13602468 -0.22437396 86.3432059 -0.22249356 89.5509491 -0.21600342 C90.49714111 -0.2252182 91.44333313 -0.23443298 92.41819763 -0.243927 C98.33651888 -0.20642915 102.81839591 0.4834783 107.37590027 4.64044189 C111.33410268 9.72388579 112.38823127 13.74211699 111.73136902 20.14044189 C109.87280075 25.40638533 107.12822706 27.93439957 102.73136902 31.14044189 C99.96656418 32.06204351 98.3144026 32.26966877 95.46273804 32.28088379 C94.59221298 32.28659393 93.72168793 32.29230408 92.82478333 32.29818726 C91.87251862 32.29930511 90.92025391 32.30042297 89.93913269 32.30157471 C88.93396103 32.30653961 87.92878937 32.31150452 86.89315796 32.31661987 C83.56187764 32.33124634 80.23064495 32.33804437 76.89933777 32.34356689 C74.58629352 32.349318 72.27324929 32.35507574 69.96020508 32.36083984 C65.10715004 32.37135125 60.25411158 32.37719299 55.40104675 32.38067627 C49.18342506 32.38616088 42.96602236 32.41018782 36.74846935 32.43864822 C31.96922161 32.45727485 27.1900266 32.46248023 22.41074562 32.46401215 C20.11862809 32.4670392 17.82651149 32.47506946 15.53442955 32.48819733 C12.32671336 32.50525775 9.11953213 32.50337735 5.91178894 32.49688721 C4.96559692 32.50610199 4.01940491 32.51531677 3.04454041 32.52481079 C-2.87378085 32.48731293 -7.35565787 31.79740549 -11.91316223 27.64044189 C-15.87136464 22.556998 -16.92549323 18.5387668 -16.26863098 12.14044189 C-14.41006271 6.87449846 -11.66548903 4.34648422 -7.26863098 1.14044189 C-4.50382614 0.21884028 -2.85166456 0.01121502 0 0 Z " fill="#6D4C40" transform="translate(208.2686309814453,351.85955810546875)"/>
<path d="M0 0 C4.42537821 2.87550655 7.9041146 5.6396448 10.80859375 10.078125 C11.29714844 10.80773437 11.78570312 11.53734375 12.2890625 12.2890625 C16.23344668 19.43753588 16.60437038 26.70976408 15.62109375 34.703125 C12.70352203 42.95379047 8.40535388 50.45269506 0.68359375 54.890625 C-0.56744141 55.62345703 -0.56744141 55.62345703 -1.84375 56.37109375 C-9.48993976 60.38858328 -17.54736225 61.22590207 -26.01171875 59.015625 C-28.27687551 58.06852113 -30.29211646 56.99475504 -32.37890625 55.703125 C-33.42498047 55.084375 -33.42498047 55.084375 -34.4921875 54.453125 C-41.48521654 49.81744473 -45.78127806 42.60227617 -48.37890625 34.703125 C-49.25523277 26.26593475 -48.89898033 18.9831197 -44.37890625 11.703125 C-43.95480469 11.00574219 -43.53070313 10.30835938 -43.09375 9.58984375 C-33.08957598 -5.20741644 -15.32873184 -8.4191093 0 0 Z " fill="#6E4D40" transform="translate(384.37890625,164.296875)"/>
<path d="M0 0 C4.42537821 2.87550655 7.9041146 5.6396448 10.80859375 10.078125 C11.29714844 10.80773437 11.78570312 11.53734375 12.2890625 12.2890625 C16.23344668 19.43753588 16.60437038 26.70976408 15.62109375 34.703125 C12.70352203 42.95379047 8.40535388 50.45269506 0.68359375 54.890625 C-0.56744141 55.62345703 -0.56744141 55.62345703 -1.84375 56.37109375 C-9.48993976 60.38858328 -17.54736225 61.22590207 -26.01171875 59.015625 C-28.27687551 58.06852113 -30.29211646 56.99475504 -32.37890625 55.703125 C-33.42498047 55.084375 -33.42498047 55.084375 -34.4921875 54.453125 C-41.48521654 49.81744473 -45.78127806 42.60227617 -48.37890625 34.703125 C-49.25523277 26.26593475 -48.89898033 18.9831197 -44.37890625 11.703125 C-43.95480469 11.00574219 -43.53070313 10.30835938 -43.09375 9.58984375 C-33.08957598 -5.20741644 -15.32873184 -8.4191093 0 0 Z " fill="#6B4D43" transform="translate(192.37890625,164.296875)"/>
</svg>
